PathFileType	4	(X/Y/Z)	Walk8.trc
DataRate	CameraRate	NumFrames	NumMarkers	Units	OrigDataRate	OrigDataStartFrame	OrigNumFrames
200.000000	200.000000	5	61	mm	200.000000	353	735
Frame#	Times		RCAR		LToe		LMT5		RWRR		LTB4		LMT1		LTB1		LTB3		RWRU		LLFC		RACR1		LUA1		LFA1		LElbow		STRN		LCAR		RFHD		RTH3		LACR1		LASI		LWRU		RTB2		RLFC		C7		LPSI		LWRR		RToe		RMT1		RMT5		LFHD		RPSI		LMFC		RMFC		CLAV		RTH2		RTB1		LTH3		RTB4		RTB3		LTH2		RCAL		LTH1		RASI		LTH4		RFA1		LTB2		RLMAL		RMMAL		LBHD		RBHD		RElbow		RUA1		RTH4		RBack		LMMAL		RTH1		LCAL		T10		LElbowM		LLMAL		RElbowM
			X1	Y1	Z1	X2	Y2	Z2	X3	Y3	Z3	X4	Y4	Z4	X5	Y5	Z5	X6	Y6	Z6	X7	Y7	Z7	X8	Y8	Z8	X9	Y9	Z9	X10	Y10	Z10	X11	Y11	Z11	X12	Y12	Z12	X13	Y13	Z13	X14	Y14	Z14	X15	Y15	Z15	X16	Y16	Z16	X17	Y17	Z17	X18	Y18	Z18	X19	Y19	Z19	X20	Y20	Z20	X21	Y21	Z21	X22	Y22	Z22	X23	Y23	Z23	X24	Y24	Z24	X25	Y25	Z25	X26	Y26	Z26	X27	Y27	Z27	X28	Y28	Z28	X29	Y29	Z29	X30	Y30	Z30	X31	Y31	Z31	X32	Y32	Z32	X33	Y33	Z33	X34	Y34	Z34	X35	Y35	Z35	X36	Y36	Z36	X37	Y37	Z37	X38	Y38	Z38	X39	Y39	Z39	X40	Y40	Z40	X41	Y41	Z41	X42	Y42	Z42	X43	Y43	Z43	X44	Y44	Z44	X45	Y45	Z45	X46	Y46	Z46	X47	Y47	Z47	X48	Y48	Z48	X49	Y49	Z49	X50	Y50	Z50	X51	Y51	Z51	X52	Y52	Z52	X53	Y53	Z53	X54	Y54	Z54	X55	Y55	Z55	X56	Y56	Z56	X57	Y57	Z57	X58	Y58	Z58	X59	Y59	Z59	X60	Y60	Z60	X61	Y61	Z61

353	1.765	-401.97	906.97	370.88	-166.77	126.23	-37.248	-251.68	76.927	-101.86	-472.06	915.55	374.82	-412.09	293.17	-12.265	-219.16	108.86	-20.531	-436.53	374.9	-14.403	-384.85	211.56	-11.645	-420.44	944.02	308.1	-530.27	495.27	-114.73	-654.98	1488	239.87	-683.39	1337.1	-214.48	-654.81	1034.3	-271.43	-728.54	1170.1	-260.04	-535.43	1285.4	50.568	-624.4	865.6	-284.71	-522.36	1689.3	131.99	-806.89	650.71	229.11	-664	1520.7	-132.34	-588.17	1010.9	-104.22	-693.05	907.92	-288.36	-852.09	271.05	173.87	-828.45	510.82	212.87	-766.66	1546.4	63.687	-820.97	1054.9	-35.165	-621.38	903.94	-227.72	-761.29	28.484	75.313	-810.66	47.204	68.808	-854.81	25.062	165.89	-514.89	1696.8	27.503	-831.69	1060.3	73.256	-518.92	493.05	27.874	-825.16	510.51	63.046	-598.58	1459	41.602	-737.73	726.75	243.56	-817.2	358.59	124.78	-563.38	630.81	-149.77	-848.31	277.9	113.43	-879.11	198.05	103.32	-537.42	734.8	-152.29	-1031.2	69.802	92.701	-619.67	794.9	-171.85	-630.6	1027.7	234.82	-591.81	712.61	-164.99	-512.18	1053.5	351.79	-394.29	297.11	-72.51	-966	90.359	133.89	-929.47	117.07	44.746	-679.12	1681.7	-5.0119	-693.22	1675.7	136.41	-637.16	1146.2	362.01	-637.54	1309.7	314.22	-796.99	732.69	238.12	-820.3	1420	181.34	-364.59	111.49	26.55	-785.47	819.57	250.5	-427.57	31.299	-28.813	-811.73	1189.9	23.77	-762.75	1145.2	-175.64	-378.08	78.67	-71.564	-672.56	1111.1	276.86
354	1.77	-397.22	906.18	370.68	-162.67	124.2	-36.462	-247.86	75.331	-100.94	-467.29	914.79	374.53	-408.22	292.25	-11.567	-215.06	107.06	-19.688	-432.76	373.95	-13.846	-380.9	210.68	-10.816	-415.58	943.21	307.87	-526.49	494.22	-114.45	-649.83	1487.4	239.34	-677.84	1336.5	-215.1	-649.44	1033.5	-271.98	-722.9	1169.4	-260.7	-529.96	1284.9	50.097	-619.48	864.6	-285.21	-517.13	1688.8	131.53	-802.85	650.62	228.83	-658.51	1520.1	-132.94	-582.72	1010.2	-104.69	-687.86	907.27	-289.3	-850.35	271.17	173.77	-825.05	510.84	212.63	-761.35	1545.8	63.031	-815.55	1054.5	-35.84	-616.62	902.95	-228.2	-761.33	28.466	75.314	-810.58	47.21	68.884	-854.77	25.052	165.84	-509.61	1696.3	27.051	-826.21	1059.9	72.614	-515.29	492.2	28.15	-821.85	510.48	62.834	-593.22	1458.3	41.072	-733.33	726.38	243.13	-814.9	358.46	124.7	-559.01	630.1	-149.62	-846.59	278	113.39	-877.94	198.34	103.4	-532.57	733.96	-152.74	-1030.9	71.087	92.971	-614.69	794.38	-172.18	-624.06	1027.4	234.03	-587.11	711.94	-165.07	-507.28	1052.8	351.42	-390.36	296.14	-71.796	-965.54	91.238	134.12	-928.89	117.7	44.931	-673.83	1681.2	-5.5385	-687.99	1675.1	135.88	-632.21	1145.6	361.47	-632.51	1309	313.65	-792.58	732.56	237.85	-815.07	1419.3	180.58	-360.51	110.58	27.551	-780.68	819.4	250.22	-423.93	31.139	-27.765	-806.25	1189.3	23.205	-757.31	1144.5	-176.39	-374.22	77.913	-70.544	-667.95	1110.5	276.36
355	1.775	-392.57	905.33	370.51	-158.9	121.68	-35.579	-244.44	73.482	-100.01	-462.62	914.01	374.25	-404.56	291.31	-10.884	-211.34	104.85	-18.781	-429.1	372.99	-13.295	-377.24	209.74	-10.005	-410.79	942.36	307.66	-522.67	493.26	-114.21	-644.63	1486.8	238.8	-672.28	1335.8	-215.73	-644.05	1032.7	-272.55	-717.24	1168.8	-261.36	-524.46	1284.3	49.602	-614.53	863.63	-285.76	-511.87	1688.3	131.05	-798.71	650.52	228.52	-653.01	1519.4	-133.57	-577.25	1009.6	-105.19	-682.65	906.62	-290.24	-848.53	271.31	173.68	-821.53	510.87	212.36	-756	1545.2	62.365	-810.14	1054.2	-36.514	-611.79	901.98	-228.74	-761.36	28.445	75.311	-810.49	47.212	68.956	-854.72	25.053	165.79	-504.3	1695.8	26.577	-820.72	1059.5	71.977	-511.65	491.41	28.378	-818.45	510.44	62.599	-587.83	1457.7	40.52	-728.83	726.01	242.67	-812.52	358.33	124.6	-554.64	629.47	-149.48	-844.81	278.11	113.33	-876.72	198.66	103.48	-527.72	733.18	-153.19	-1030.5	72.438	93.249	-609.73	793.9	-172.51	-617.55	1027.2	232.95	-582.43	711.34	-165.14	-502.44	1052	351.06	-386.55	295.15	-71.072	-965.05	92.165	134.35	-928.28	118.36	45.118	-668.52	1680.6	-6.0845	-682.72	1674.5	135.34	-627.29	1145	360.93	-627.45	1308.4	313.06	-788.08	732.41	237.56	-809.81	1418.7	179.81	-356.82	109.6	28.505	-775.8	819.21	249.93	-420.79	31.082	-26.831	-800.75	1188.7	22.656	-751.86	1143.8	-177.15	-370.75	77.153	-69.585	-663.33	1110	275.84
356	1.78	-388.02	904.43	370.36	-155.44	118.71	-34.623	-241.39	71.405	-99.071	-458.04	913.2	373.98	-401.08	290.38	-10.232	-207.96	102.29	-17.83	-425.55	372.06	-12.768	-373.83	208.78	-9.2266	-406.09	941.46	307.47	-518.8	492.42	-114.03	-639.38	1486.2	238.23	-666.72	1335.1	-216.38	-638.64	1031.9	-273.15	-711.58	1168.1	-262.03	-518.93	1283.8	49.08	-609.54	862.69	-286.35	-506.57	1687.8	130.55	-794.47	650.42	228.18	-647.5	1518.7	-134.22	-571.78	1009.1	-105.72	-677.43	905.96	-291.16	-846.63	271.5	173.61	-817.9	510.89	212.07	-750.62	1544.7	61.69	-804.72	1053.9	-37.184	-606.89	901.03	-229.32	-761.39	28.422	75.304	-810.4	47.209	69.022	-854.66	25.066	165.73	-498.96	1695.4	26.08	-815.22	1059.1	71.35	-508	490.71	28.544	-814.95	510.4	62.342	-582.4	1457.2	39.945	-724.24	725.63	242.17	-810.07	358.2	124.46	-550.28	628.91	-149.34	-842.95	278.24	113.24	-875.45	199	103.53	-522.91	732.47	-153.64	-1030.2	73.862	93.536	-604.8	793.48	-172.85	-611.1	1027	231.58	-577.77	710.81	-165.19	-497.64	1051.3	350.7	-382.86	294.16	-70.355	-964.52	93.143	134.6	-927.63	119.06	45.306	-663.18	1680.1	-6.6494	-677.43	1673.9	134.77	-622.39	1144.4	360.38	-622.38	1307.8	312.46	-783.5	732.25	237.25	-804.5	1418.1	179.04	-353.51	108.56	29.394	-770.86	819.01	249.62	-418.1	31.135	-26.021	-795.24	1188.1	22.127	-746.37	1143.2	-177.91	-367.65	76.406	-68.699	-658.67	1109.4	275.32
357	1.785	-383.57	903.49	370.22	-152.26	115.35	-33.623	-238.68	69.131	-98.157	-453.56	912.35	373.73	-397.77	289.46	-9.6282	-204.91	99.407	-16.862	-422.11	371.16	-12.283	-370.66	207.82	-8.5015	-401.48	940.52	307.29	-514.9	491.7	-113.92	-634.08	1485.7	237.66	-661.16	1334.4	-217.04	-633.22	1031.1	-273.77	-705.89	1167.5	-262.7	-513.37	1283.4	48.528	-604.51	861.8	-287	-501.24	1687.4	130.03	-790.13	650.3	227.81	-641.97	1518.1	-134.89	-566.31	1008.6	-106.29	-672.2	905.31	-292.07	-844.65	271.72	173.55	-814.14	510.92	211.76	-745.21	1544.2	61.005	-799.33	1053.7	-37.842	-601.93	900.11	-229.94	-761.42	28.397	75.291	-810.3	47.201	69.082	-854.59	25.091	165.66	-493.59	1695	25.561	-809.71	1058.8	70.739	-504.36	490.08	28.636	-811.34	510.36	62.065	-576.94	1456.6	39.35	-719.56	725.26	241.65	-807.52	358.09	124.3	-545.94	628.43	-149.23	-841.03	278.38	113.14	-874.12	199.37	103.58	-518.12	731.86	-154.1	-1029.8	75.366	93.829	-599.9	793.14	-173.2	-604.74	1026.8	229.94	-573.14	710.38	-165.24	-492.91	1050.5	350.36	-379.28	293.2	-69.663	-963.94	94.178	134.85	-926.92	119.79	45.497	-657.8	1679.6	-7.2326	-672.09	1673.5	134.19	-617.52	1143.8	359.82	-617.28	1307.2	311.85	-778.82	732.08	236.91	-799.16	1417.5	178.25	-350.53	107.49	30.201	-765.83	818.79	249.29	-415.83	31.302	-25.344	-789.72	1187.6	21.622	-740.86	1142.5	-178.66	-364.88	75.685	-67.902	-653.95	1108.9	274.78
